<?xml version="1.0" encoding="utf-8"?>
<!-- Generator: Adobe Illustrator 19.0.0, SVG Export Plug-In . SVG Version: 6.00 Build 0)  -->
<svg version="1.1" id="Layer_1" xmlns="http://www.w3.org/2000/svg" xmlns:xlink="http://www.w3.org/1999/xlink" x="0px" y="0px"
	 viewBox="0 0 88.4 98.1" style="enable-background:new 0 0 88.4 98.1;" xml:space="preserve">
<metadata><?xpacket begin="﻿" id="W5M0MpCehiHzreSzNTczkc9d"?>
<x:xmpmeta xmlns:x="adobe:ns:meta/" x:xmptk="Adobe XMP Core 5.6-c067 79.157747, 2015/03/30-23:40:42        ">
   <rdf:RDF xmlns:rdf="http://www.w3.org/1999/02/22-rdf-syntax-ns#">
      <rdf:Description rdf:about=""/>
   </rdf:RDF>
</x:xmpmeta>
                                                                                                    
                                                                                                    
                                                                                                    
                                                                                                    
                                                                                                    
                                                                                                    
                                                                                                    
                                                                                                    
                                                                                                    
                                                                                                    
                                                                                                    
                                                                                                    
                                                                                                    
                                                                                                    
                                                                                                    
                                                                                                    
                                                                                                    
                                                                                                    
                                                                                                    
                                                                                                    
                           
<?xpacket end="w"?></metadata>
<g id="XMLID_80_">
	<path id="XMLID_81_" d="M43.8,96.5l-1-8.7h-0.4C38.5,93.2,31,98.1,21.2,98.1C7.1,98.1,0,88.2,0,78.2c0-16.7,14.9-25.9,41.6-25.7
		v-1.4c0-5.7-1.6-16-15.7-16c-6.4,0-13.2,2-18,5.1L5,31.9c5.7-3.7,14-6.1,22.7-6.1c21.2,0,26.3,14.4,26.3,28.3v25.9
		c0,6,0.3,11.9,1.1,16.6H43.8z M41.9,61.2c-13.7-0.3-29.3,2.1-29.3,15.6c0,8.2,5.4,12,11.9,12c9,0,14.7-5.7,16.7-11.6
		c0.4-1.3,0.7-2.7,0.7-4V61.2z"/>
	<path id="XMLID_84_" d="M88.4,7.9c0.1,4.3-3,7.7-8,7.7c-4.4,0-7.6-3.4-7.6-7.7c0-4.4,3.3-7.9,7.9-7.9C85.4,0,88.4,3.4,88.4,7.9z
		 M74.4,96.5V27.3h12.6v69.2H74.4z"/>
</g>
</svg>
